<svg width="16" height="16" viewBox="0 0 16 16" fill="none" xmlns="http://www.w3.org/2000/svg">
<path d="M1.25 12.667V3.33301C1.25009 2.78059 1.46973 2.25098 1.86035 1.86035C2.25098 1.46973 2.78059 1.25009 3.33301 1.25H6C6.41421 1.25 6.75 1.58579 6.75 2C6.75 2.41421 6.41421 2.75 6 2.75H3.33301C3.17842 2.75009 3.03022 2.81158 2.9209 2.9209C2.81158 3.03022 2.75009 3.17842 2.75 3.33301V12.667C2.75009 12.8216 2.81158 12.9698 2.9209 13.0791C3.03022 13.1884 3.17842 13.2499 3.33301 13.25H6C6.41421 13.25 6.75 13.5858 6.75 14C6.75 14.4142 6.41421 14.75 6 14.75H3.33301C2.78059 14.7499 2.25098 14.5303 1.86035 14.1396C1.46973 13.749 1.25009 13.2194 1.25 12.667Z" fill="#60758F"/>
<path d="M10.1364 4.13641C10.4293 3.84352 10.904 3.84352 11.1969 4.13641L14.5299 7.46942C14.8228 7.76231 14.8228 8.23708 14.5299 8.52997L11.1969 11.864C10.9041 12.1566 10.4292 12.1566 10.1364 11.864C9.84354 11.5711 9.84365 11.0963 10.1364 10.8034L12.9391 7.99969L10.1364 5.19696C9.84349 4.90407 9.84349 4.42931 10.1364 4.13641Z" fill="#60758F"/>
<path d="M14 7.25C14.4142 7.25 14.75 7.58579 14.75 8C14.75 8.41421 14.4142 8.75 14 8.75H6C5.58579 8.75 5.25 8.41421 5.25 8C5.25 7.58579 5.58579 7.25 6 7.25H14Z" fill="#60758F"/>
</svg>
