<svg width="16" height="16" viewBox="0 0 16 16" fill="none" xmlns="http://www.w3.org/2000/svg">
<g clip-path="url(#clip0_1711_8010)">
<path d="M6.36567 0.766543C7.9257 0.414076 9.55811 0.574593 11.019 1.22553C11.3973 1.39413 11.5675 1.83841 11.3989 2.21674C11.2303 2.59476 10.7868 2.76477 10.4086 2.59662C9.24322 2.07734 7.94027 1.94825 6.69575 2.22943C5.45146 2.51066 4.33126 3.18647 3.50239 4.15619C2.67343 5.12608 2.1801 6.33816 2.09614 7.61127C2.0122 8.88431 2.34223 10.1503 3.03657 11.2206C3.73101 12.291 4.75284 13.1086 5.94966 13.5507C7.14647 13.9929 8.45466 14.0365 9.67817 13.6747C10.9016 13.3129 11.9749 12.5647 12.7387 11.5429C13.5025 10.5213 13.9155 9.28038 13.9165 8.00482V7.39154C13.9165 6.97744 14.2524 6.64172 14.6665 6.64154C15.0807 6.64154 15.4165 6.97733 15.4165 7.39154V8.00482L15.4106 8.30463C15.3494 9.79794 14.8376 11.2406 13.9399 12.4413C12.9823 13.7222 11.6366 14.6598 10.103 15.1132C8.56942 15.5666 6.93023 15.5121 5.43013 14.9579C3.92989 14.4037 2.64827 13.3787 1.77778 12.0371C0.907486 10.6955 0.493867 9.10834 0.599073 7.51264C0.704304 5.91678 1.32267 4.39735 2.36177 3.18158C3.4009 1.9658 4.80565 1.11901 6.36567 0.766543Z" fill="#60758F"/>
<path d="M14.1359 2.14081C14.4286 1.84779 14.9034 1.84812 15.1964 2.14081C15.4895 2.43356 15.4901 2.90832 15.1974 3.20136L8.53041 9.87421L8.41615 9.96796C8.29386 10.0495 8.14932 10.0939 8.00014 10.0939C7.85089 10.0939 7.70647 10.0496 7.58412 9.96796L7.46986 9.87519L5.46986 7.87519C5.17697 7.58229 5.17697 7.10656 5.46986 6.81366C5.76269 6.52109 6.23758 6.52109 6.53041 6.81366L8.00014 8.28339L14.1359 2.14081Z" fill="#60758F"/>
</g>
<defs>
<clipPath id="clip0_1711_8010">
<rect width="16" height="16" fill="white"/>
</clipPath>
</defs>
</svg>
