<svg width="16" height="16" viewBox="0 0 16 16" fill="none" xmlns="http://www.w3.org/2000/svg">
<g clip-path="url(#clip0_1711_8014)">
<path d="M7.33623 4.01606C7.33623 3.64787 7.6347 3.34939 8.00289 3.34939C8.37108 3.34939 8.66956 3.64787 8.66956 4.01606V7.60395L10.9677 8.75304C11.2971 8.9177 11.4306 9.31825 11.2659 9.64757C11.1013 9.97689 10.7007 10.1104 10.3714 9.94574L7.70472 8.61241C7.47886 8.49948 7.33623 8.26857 7.33623 8.01606V4.01606Z" fill="#60758F"/>
<path d="M10.6807 12.915C10.6807 13.2685 10.3942 13.555 10.0407 13.555C9.68725 13.555 9.40072 13.2685 9.40072 12.915C9.40072 12.5616 9.68725 12.275 10.0407 12.275C10.3942 12.275 10.6807 12.5616 10.6807 12.915Z" fill="#60758F"/>
<path d="M13.0072 12.915C13.0072 13.2685 12.7207 13.555 12.3672 13.555C12.0138 13.555 11.7272 13.2685 11.7272 12.915C11.7272 12.5616 12.0138 12.275 12.3672 12.275C12.7207 12.275 13.0072 12.5616 13.0072 12.915Z" fill="#60758F"/>
<path d="M15.3338 12.915C15.3338 13.2685 15.0473 13.555 14.6938 13.555C14.3404 13.555 14.0538 13.2685 14.0538 12.915C14.0538 12.5616 14.3404 12.275 14.6938 12.275C15.0473 12.275 15.3338 12.5616 15.3338 12.915Z" fill="#60758F"/>
<path d="M13.9857 7.99945C13.9857 4.69394 11.3059 2.0143 8.00043 2.0143C4.69493 2.01432 2.01529 4.69395 2.01527 7.99945C2.01527 11.305 4.69492 13.9847 8.00043 13.9848C8.37598 13.9848 8.68043 14.2892 8.68043 14.6648C8.68039 15.0403 8.37596 15.3448 8.00043 15.3448C3.94381 15.3447 0.655273 12.0561 0.655273 7.99945C0.655295 3.94284 3.94382 0.654318 8.00043 0.654297C12.0571 0.654297 15.3457 3.94283 15.3457 7.99945C15.3457 8.9491 15.165 9.85824 14.8357 10.6932C14.698 11.0426 14.3031 11.2141 13.9537 11.0763C13.6044 10.9385 13.4328 10.5436 13.5706 10.1943C13.8382 9.51562 13.9857 8.77553 13.9857 7.99945Z" fill="#60758F"/>
</g>
<defs>
<clipPath id="clip0_1711_8014">
<rect width="16" height="16" fill="white"/>
</clipPath>
</defs>
</svg>
