<svg width="16" height="16" viewBox="0 0 16 16" fill="none" xmlns="http://www.w3.org/2000/svg">
<path d="M13.25 12.667V3.33301C13.2499 3.17842 13.1884 3.03022 13.0791 2.9209C12.9698 2.81158 12.8216 2.75009 12.667 2.75H10C9.58579 2.75 9.25 2.41421 9.25 2C9.25 1.58579 9.58579 1.25 10 1.25H12.667C13.2194 1.25009 13.749 1.46973 14.1396 1.86035C14.5303 2.25098 14.7499 2.78059 14.75 3.33301V12.667C14.7499 13.2194 14.5303 13.749 14.1396 14.1396C13.749 14.5303 13.2194 14.7499 12.667 14.75H10C9.58579 14.75 9.25 14.4142 9.25 14C9.25 13.5858 9.58579 13.25 10 13.25H12.667C12.8216 13.2499 12.9698 13.1884 13.0791 13.0791C13.1884 12.9698 13.2499 12.8216 13.25 12.667Z" fill="#60758F"/>
<path d="M6.13638 4.13641C6.42928 3.84352 6.90404 3.84352 7.19693 4.13641L10.5299 7.46942C10.6705 7.61 10.7496 7.8009 10.7497 7.99969C10.7497 8.19861 10.6706 8.38932 10.5299 8.52997L7.19693 11.864C6.90408 12.1566 6.42923 12.1566 6.13638 11.864C5.84354 11.5711 5.84365 11.0963 6.13638 10.8034L8.93912 7.99969L6.13638 5.19696C5.84349 4.90407 5.84349 4.42931 6.13638 4.13641Z" fill="#60758F"/>
<path d="M10 7.25C10.4142 7.25 10.7497 7.58548 10.7497 7.99969C10.7497 8.41391 10.4142 8.75 10 8.75H2C1.58579 8.75 1.25 8.41421 1.25 8C1.25 7.58579 1.58579 7.25 2 7.25H10Z" fill="#60758F"/>
</svg>
